<svg xmlns="http://www.w3.org/2000/svg" width="67" height="67" viewBox="0 0 67 67">
    <g fill="none" fill-rule="evenodd">
        <circle cx="33.5" cy="33.5" r="33.5" fill="#F6F6F6"/>
        <g fill="#707070">
            <path d="M24 23h15v-1H24zM24 27h15v-1H24zM24 31h15v-1H24zM24 35h9v-1h-9z"/>
            <path d="M46.987 48H35.995v-3.504c0-1.891 1.073-3.6 2.745-4.448a4.467 4.467 0 0 0 2.751.946 4.467 4.467 0 0 0 2.751-.946 4.992 4.992 0 0 1 2.745 4.448V48zm-19.99 0v-6H21V19h19.99v13.03a4.505 4.505 0 0 0-3.976 4.893c.006.061.012.122.024.177.012.074.018.147.037.22a2.984 2.984 0 0 0 .091.378 3 3 0 0 0 .08.25l.036.11c.037.092.067.184.11.275l.018.043c.153.335.348.647.573.933a5.993 5.993 0 0 0-2.989 5.187V48h-7.997zm-1-.709l-4.289-4.29h4.289v4.29zm18.996-10.789c0 .733-.232 1.447-.66 2.032-.005.007-.005.013-.011.019a4.353 4.353 0 0 1-.208.262c-.012.012-.018.025-.03.03-.074.08-.147.153-.22.226a3.48 3.48 0 0 1-4.74.006 4.155 4.155 0 0 1-.232-.231c-.006-.006-.012-.019-.018-.025-.08-.085-.146-.177-.213-.268 0-.006-.007-.006-.007-.006a3.53 3.53 0 0 1-.658-2.039 3.506 3.506 0 0 1 3.501-3.502 3.496 3.496 0 0 1 3.496 3.496zm.006 2.807c.225-.286.42-.598.573-.933l.018-.043c.043-.091.074-.183.11-.275l.037-.11a3.95 3.95 0 0 0 .08-.25c.011-.048.03-.103.042-.158.018-.073.036-.147.049-.226l.036-.22c.006-.06.019-.116.025-.177a4.505 4.505 0 0 0-3.977-4.894V18H20v24.708L26.29 49h21.698v-4.497a6.003 6.003 0 0 0-2.99-5.194z"/>
        </g>
    </g>
</svg>
