<?xml version="1.0" encoding="UTF-8"?>
<svg width="15px" height="16px" viewBox="0 0 15 16" version="1.1" xmlns="http://www.w3.org/2000/svg" xmlns:xlink="http://www.w3.org/1999/xlink">
    <!-- Generator: sketchtool 50.2 (55047) - http://www.bohemiancoding.com/sketch -->
    <title>D41E5C1A-DDFF-4B10-9915-E642B13139D3</title>
    <desc>Created with sketchtool.</desc>
    <defs></defs>
    <g id="Symbols" stroke="none" stroke-width="1" fill="none" fill-rule="evenodd">
        <g id="Group" fill="#CED3D6">
            <g>
                <path d="M13.7785149,2.30262566 L10.4513883,2.30262566 L10.4513883,1.75990502 C10.4513883,0.789430537 9.66239724,0 8.69250413,0 L5.52975919,0 C4.55998937,0 3.77099832,0.789430537 3.77099832,1.75990502 L3.77099832,2.30262566 L0.443871677,2.30262566 C0.197299132,2.30262566 0,2.50003469 0,2.74674459 C0,2.99345448 0.197299132,3.19086351 0.443871677,3.19086351 L1.24601326,3.19086351 L1.24601326,13.6249239 C1.24601326,14.934131 2.31112447,16 3.61960277,16 L10.6026194,16 C11.9110978,16 12.9763733,14.934131 12.9763733,13.6249239 L12.9763733,3.19086351 L13.7785149,3.19086351 C14.0250875,3.19086351 14.2222222,2.99345448 14.2222222,2.74674459 C14.2222222,2.50003469 14.0250875,2.30262566 13.7785149,2.30262566 Z M4.65853619,1.75990502 C4.65853619,1.27964309 5.04976463,0.888237849 5.52975919,0.888237849 L8.69250413,0.888237849 C9.17245759,0.888237849 9.56368603,1.27964309 9.56368603,1.75990502 L9.56368603,2.30262566 L4.65853619,2.30262566 L4.65853619,1.75990502 Z M12.08863,13.6249239 C12.08863,14.4440829 11.4213225,15.1118033 10.6026194,15.1118033 L3.61960277,15.1118033 C2.80106411,15.1118033 2.13375662,14.4440829 2.13375662,13.6249239 L2.13375662,3.19086351 L12.0918354,3.19086351 L12.0918354,13.6249239 L12.08863,13.6249239 Z" id="Fill-1"></path>
                <path d="M7.11111111,13.1555556 C7.30862369,13.1555556 7.46666667,12.9627452 7.46666667,12.7217825 L7.46666667,5.05599528 C7.46666667,4.81503256 7.30862369,4.62222222 7.11111111,4.62222222 C6.91359854,4.62222222 6.75555556,4.81503256 6.75555556,5.05599528 L6.75555556,12.71865 C6.75555556,12.9596127 6.91359854,13.1555556 7.11111111,13.1555556 Z" id="Fill-2"></path>
                <path d="M4.26661728,13.1555556 C4.46417558,13.1555556 4.62222222,12.9565587 4.62222222,12.7078644 L4.62222222,5.78102446 C4.62222222,5.5323302 4.46417558,5.33333333 4.26661728,5.33333333 C4.06905897,5.33333333 3.91111111,5.5323302 3.91111111,5.78102446 L3.91111111,12.7078644 C3.91111111,12.9565587 4.07175894,13.1555556 4.26661728,13.1555556 Z" id="Fill-3"></path>
                <path d="M9.95557202,13.1555556 C10.1530937,13.1555556 10.3111111,12.9565587 10.3111111,12.7078644 L10.3111111,5.78102446 C10.3111111,5.5323302 10.1530937,5.33333333 9.95557202,5.33333333 C9.7580503,5.33333333 9.6,5.5323302 9.6,5.78102446 L9.6,12.7078644 C9.6,12.9565587 9.7580503,13.1555556 9.95557202,13.1555556 Z" id="Fill-4"></path>
            </g>
        </g>
    </g>
</svg>