<svg xmlns="http://www.w3.org/2000/svg" xmlns:xlink="http://www.w3.org/1999/xlink" width="204" height="24" viewBox="0 0 204 24">
    <defs>
        <rect id="a" width="20" height="4" x="8.5" y="8" rx="2"/>
    </defs>
    <g fill="none" fill-rule="evenodd">
        <path fill="#3C435F" d="M5.17 11.09h2.88c1.44 0 2.535-.295 3.285-.885.75-.59 1.125-1.485 1.125-2.685s-.375-2.035-1.125-2.505c-.75-.47-1.845-.705-3.285-.705H5.17v6.78zM12.82 23l-4.56-8.4H5.17V23H.73V.8h7.74c1.16 0 2.25.11 3.27.33 1.02.22 1.905.59 2.655 1.11.75.52 1.34 1.21 1.77 2.07.43.86.645 1.93.645 3.21 0 1.68-.385 3.04-1.155 4.08s-1.795 1.81-3.075 2.31L17.77 23h-4.95zM33.73.8h13.62v3.69h-9.18v5.13h7.8v3.72h-7.8v5.94h9.51V23H33.73zM63.29 20.33L73.64 4.49h-9.36V.8h14.79v2.64L68.75 19.28h10.44V23h-15.9zM154 1h4.92l3.78 10.38c.24.7.47 1.41.69 2.13l.66 2.16h.15c.24-.72.465-1.44.675-2.16.21-.72.435-1.43.675-2.13L169.24 1h4.92v22.2h-4.05v-9.27c0-.52.02-1.095.06-1.725.04-.63.085-1.27.135-1.92a106.018 106.018 0 0 1 .345-3.645h-.12l-1.8 5.22-3.42 9.33h-2.55l-3.45-9.33-1.77-5.22h-.12c.06.52.12 1.095.18 1.725l.18 1.92c.06.65.11 1.29.15 1.92.04.63.06 1.205.06 1.725v9.27H154V1zM190 1h13.62v3.69h-9.18v5.13h7.8v3.72h-7.8v5.94h9.51v3.72H190z"/>
        <g transform="translate(97 2)">
            <circle cx="10" cy="10" r="10" stroke="#3C435F" stroke-width="4"/>
            <circle cx="27" cy="10" r="10" stroke="#3C435F" stroke-width="4"/>
            <use fill="#2CCAFF" xlink:href="#a"/>
            <rect width="23" height="7" x="7" y="6.5" stroke="#F2F5F8" stroke-width="3" rx="3.5"/>
        </g>
    </g>
</svg>
