<svg xmlns="http://www.w3.org/2000/svg" width="60" height="60" viewBox="0 0 60 60">
    <g fill="none" fill-rule="evenodd">
        <rect width="59" height="59" x=".5" y=".5" fill="#FAFBFD" stroke="#E1E5ED" rx="5"/>
        <g fill="#D6D9DF">
            <path d="M39.098 34.416v-5.023l-7.897 1.618a4.806 4.806 0 0 1-1.91 0l-7.898-1.618v5.023c0 1.3 3.963 2.354 8.853 2.354s8.852-1.051 8.852-2.354z"/>
            <path d="M44.378 25.823l-13.61-2.745a3.956 3.956 0 0 0-.767-.078c-.258 0-.512.025-.767.078l-13.61 2.745c-.832.168-.832 1.357 0 1.525l5.564 1.12 8.046 1.623c.251.05.51.077.767.077.258 0 .513-.024.767-.077l8.046-1.622 2.504-.504v5.833a1.416 1.416 0 0 0 .932 2.48 1.416 1.416 0 0 0 .932-2.48v-6.21l1.196-.24c.83-.168.83-1.357 0-1.525z"/>
        </g>
    </g>
</svg>
