<?xml version="1.0" encoding="UTF-8"?>
<svg width="60px" height="60px" viewBox="0 0 60 60" version="1.1" xmlns="http://www.w3.org/2000/svg" xmlns:xlink="http://www.w3.org/1999/xlink">
    <!-- Generator: sketchtool 50.2 (55047) - http://www.bohemiancoding.com/sketch -->
    <title>A9BD757D-08C9-44C2-A137-A833E927796D</title>
    <desc>Created with sketchtool.</desc>
    <defs></defs>
    <g id="REZOOME-Web" stroke="none" stroke-width="1" fill="none" fill-rule="evenodd">
        <g id="수기입력용_아이콘" transform="translate(-380.000000, -118.000000)">
            <g id="icon-university" transform="translate(380.000000, 118.000000)">
                <g>
                    <rect id="Rectangle" fill="#FAFBFD" x="0" y="0" width="60" height="60" rx="5"></rect>
                    <g id="Group" transform="translate(15.000000, 23.000000)" fill="#D6D9DF">
                        <path d="M24.0983607,11.4163028 L24.0983607,6.39344262 L16.2007663,8.01064945 C15.8887318,8.0740701 15.5672582,8.10587971 15.2459016,8.10587971 C14.9244281,8.10587971 14.6063088,8.0740701 14.2910759,8.01064945 L6.39344262,6.39344262 L6.39344262,11.4163028 C6.39344262,12.7156121 10.3563593,13.7704918 15.2459016,13.7704918 C20.1354829,13.7704918 24.0983607,12.7188685 24.0983607,11.4163028 Z" id="Fill-1"></path>
                        <path d="M29.3778419,2.82315265 L15.7683563,0.0778167465 C15.5168875,0.0279751204 15.2590117,0 15.0011358,0 C14.7432988,0 14.488607,0.0249402672 14.2337988,0.0778167465 L0.624313179,2.82315265 C-0.208104393,2.99123683 -0.208104393,4.18035453 0.624313179,4.34847761 L6.18804048,5.46892203 L14.2337988,7.09058412 C14.4854229,7.14046466 14.7432988,7.16840087 15.0011358,7.16840087 C15.2590117,7.16840087 15.5137034,7.14365514 15.7683563,7.09058412 L23.8142311,5.46892203 L26.3180851,4.96478624 L26.3180851,10.7978517 C26.0228927,11.0562033 25.8364657,11.4390617 25.8364657,11.8623459 C25.8364657,12.6437039 26.4702245,13.2786885 27.2500262,13.2786885 C28.0296726,13.2786885 28.6633926,12.6437039 28.6633926,11.8623459 C28.6633926,11.4360269 28.4769655,11.0562033 28.1819673,10.7978517 L28.1819673,4.58815319 L29.3778419,4.34847761 C30.207386,4.18035453 30.207386,2.99123683 29.3778419,2.82315265 Z" id="Fill-3"></path>
                    </g>
                </g>
            </g>
        </g>
    </g>
</svg>