<svg xmlns="http://www.w3.org/2000/svg" xmlns:xlink="http://www.w3.org/1999/xlink" width="60" height="60" viewBox="0 0 60 60">
    <defs>
        <path id="a" d="M0 .04h21.994V30H0z"/>
    </defs>
    <g fill="none" fill-rule="evenodd">
        <rect width="59" height="59" x=".5" y=".5" fill="#FAFBFD" stroke="#E1E5ED" rx="5"/>
        <g transform="translate(19 14)">
            <mask id="b" fill="#fff">
                <use xlink:href="#a"/>
            </mask>
            <path fill="#D6D9DF" d="M16.096 21.314h-.057l-1.262-.048-.937.848a1.592 1.592 0 0 1-1.67.293L11 21.93l-1.17.478a1.592 1.592 0 0 1-1.67-.293l-.937-.848-1.262.048h-.057a1.587 1.587 0 0 1-1.41-.85l-.589-1.12-.048-.015v9.87c0 .593.625.979 1.154.711l5.635-2.83a.811.811 0 0 1 .717 0l5.626 2.833a.795.795 0 0 0 1.154-.71v-9.871l-.048.016-.59 1.118a1.587 1.587 0 0 1-1.409.848z" mask="url(#b)"/>
            <path fill="#D6D9DF" d="M21.872 11.27a.798.798 0 0 0 0-.848l-.673-1.07a.8.8 0 0 1-.105-.59l.268-1.237a.797.797 0 0 0-.29-.797l-.998-.774a.8.8 0 0 1-.3-.52L19.6 4.182a.802.802 0 0 0-.545-.65l-1.201-.39a.797.797 0 0 1-.46-.385l-.589-1.119a.797.797 0 0 0-.704-.424h-.03l-1.261.048h-.029a.794.794 0 0 1-.535-.207l-.937-.848A.806.806 0 0 0 12.772 0a.753.753 0 0 0-.3.06l-1.17.479a.81.81 0 0 1-.299.06.752.752 0 0 1-.3-.06L9.534.06a.79.79 0 0 0-.835.147l-.936.847a.794.794 0 0 1-.536.207h-.028l-1.263-.048h-.028a.797.797 0 0 0-.705.424l-.59 1.119a.786.786 0 0 1-.458.386l-1.202.388a.798.798 0 0 0-.545.65l-.175 1.253a.8.8 0 0 1-.3.52l-1.01.774a.797.797 0 0 0-.29.797L.9 8.762a.783.783 0 0 1-.106.59l-.672 1.07a.798.798 0 0 0 0 .848l.672 1.071a.8.8 0 0 1 .106.59l-.268 1.236c-.064.3.048.61.29.797l.998.775c.162.127.27.312.3.52l.175 1.252a.802.802 0 0 0 .544.65l.912.293.293.096a.797.797 0 0 1 .46.385l.589 1.12a.797.797 0 0 0 .704.423h.029l1.262-.048h.029c.197 0 .389.074.535.207l.937.848c.15.134.341.207.536.207.102 0 .204-.019.3-.06l1.17-.478a.81.81 0 0 1 .299-.06c.102 0 .204.018.3.06l1.169.478a.791.791 0 0 0 .835-.147l.937-.848a.794.794 0 0 1 .535-.207h.03l1.261.048h.029a.797.797 0 0 0 .704-.424l.59-1.119a.785.785 0 0 1 .459-.385l.293-.096.912-.293a.798.798 0 0 0 .545-.65l.175-1.253a.799.799 0 0 1 .3-.52l.997-.774a.797.797 0 0 0 .29-.797l-.267-1.236a.782.782 0 0 1 .105-.59l.679-1.07zm-3.165 2.834a8.27 8.27 0 0 1-1.791 2.658A8.335 8.335 0 0 1 11 19.21a8.319 8.319 0 0 1-3.257-.657 8.3 8.3 0 0 1-2.658-1.791 8.371 8.371 0 0 1-1.792-2.658 8.319 8.319 0 0 1-.656-3.258c0-1.128.22-2.225.656-3.257A8.302 8.302 0 0 1 5.085 4.93 8.336 8.336 0 0 1 11 2.483c1.128 0 2.225.22 3.257.656a8.302 8.302 0 0 1 2.658 1.792 8.336 8.336 0 0 1 2.448 5.915c0 1.128-.22 2.225-.656 3.258z" mask="url(#b)"/>
            <path fill="#D6D9DF" d="M10.91 3.5a7.41 7.41 0 1 0 .001 14.821 7.41 7.41 0 0 0 0-14.821zm3.3 10.843a.796.796 0 0 1-1.174.858l-2.126-1.205L8.781 15.2c-.596.337-1.316-.189-1.173-.858l.51-2.403-1.663-1.501-.185-.17a.798.798 0 0 1 .436-1.382L9.13 8.59l1.055-2.26a.797.797 0 0 1 1.443 0l1.055 2.26 2.423.297a.797.797 0 0 1 .437 1.383l-.185.169-1.664 1.5.516 2.404z" mask="url(#b)"/>
        </g>
    </g>
</svg>
