<svg xmlns="http://www.w3.org/2000/svg" width="60" height="60" viewBox="0 0 60 60">
    <g fill="none" fill-rule="evenodd">
        <rect width="59" height="59" x=".5" y=".5" fill="#FAFBFD" stroke="#E1E5ED" rx="5"/>
        <path fill="#D6D9DF" d="M29.216 17.999a10.222 10.222 0 0 0-6.036 1.977 10.126 10.126 0 0 0-3.741 5.291 10.197 10.197 0 0 0 .778 7.782 10.189 10.189 0 0 0 5.17 4.639l-.342 1.14a10.77 10.77 0 0 1-1.071-.486.776.776 0 0 0-1.024.289l-.162.268a.776.776 0 0 0 .305 1.09c.732.38 1.504.69 2.297.933.953.287 1.92.467 2.895.536v1.674h-2.577a.779.779 0 0 0-.778.778v.312c0 .43.348.778.778.778h7.026c.43 0 .778-.349.778-.778v-.312a.779.779 0 0 0-.778-.778h-2.578v-1.674c.162-.013.32-.025.483-.044a13.215 13.215 0 0 0 4.859-1.507 13.235 13.235 0 0 0 6.431-7.863 13.215 13.215 0 0 0-1.015-10.108 13.234 13.234 0 0 0-7.863-6.43 13.444 13.444 0 0 0-2.496-.502.776.776 0 0 0-.853.744l-.013.312c-.015.41.29.762.698.803.407.043.815.109 1.22.196l-.343 1.14c-.675-.132-1.36-.2-2.048-.2zM21.4 31.14a8.27 8.27 0 0 1-.393-4.423l2.706.816a18.437 18.437 0 0 0-.502 3.004 9.68 9.68 0 0 0-1.811.603zm5.537-6.913c.667.482 1.386.878 2.152 1.186l-.492 1.64-2.553-.769c.258-.725.56-1.416.893-2.057zm5.495-3.424c.395.491.69 1.248.85 2.21.065.401.105.825.12 1.267a8.148 8.148 0 0 1-1.982-.125l1.012-3.352zm-.928 11.402a10.049 10.049 0 0 0-2.151-1.186l.495-1.637 2.552.769c-.26.722-.563 1.41-.896 2.054zM26.01 35.63c-.396-.492-.691-1.248-.85-2.21a10.094 10.094 0 0 1-.121-1.267 8.154 8.154 0 0 1 1.982.125L26.01 35.63zm4.03-1.189c-.752.9-1.54 1.504-2.24 1.728l1.011-3.356a8.07 8.07 0 0 1 1.719.993c-.16.224-.324.436-.49.635zm.343-6.848l.492-1.638a10.012 10.012 0 0 0 2.453.2 17.073 17.073 0 0 1-.392 2.207l-2.553-.77zm-1.983-5.6c.754-.9 1.541-1.504 2.242-1.728l-1.012 3.353a8.067 8.067 0 0 1-1.718-.993 11.7 11.7 0 0 1 .488-.632zm-.342 6.848l-.495 1.637a10 10 0 0 0-2.453-.199c.078-.716.209-1.457.392-2.207l2.556.77zm3.415 6.799c.143-.175.286-.355.426-.542.215.252.411.52.595.797-.56.24-1.149.417-1.746.529.245-.24.488-.501.725-.784zm2.683-.688l-.034.025a10.22 10.22 0 0 0-1.177-1.507c.473-.856.897-1.793 1.245-2.777l2.709.816a8.314 8.314 0 0 1-2.743 3.443zm.57-6.052a18.45 18.45 0 0 0 .501-3.004 9.976 9.976 0 0 0 1.812-.604 8.27 8.27 0 0 1 .392 4.424l-2.705-.816zm.529-4.94c-.025-.433-.068-.85-.134-1.251a7.902 7.902 0 0 0-.096-.498 8.4 8.4 0 0 1 1.167 1.413 8.17 8.17 0 0 1-.937.336zm-7.561-3.95c-.246.24-.489.5-.725.784-.144.171-.287.355-.427.542a8.303 8.303 0 0 1-.595-.797 8.426 8.426 0 0 1 1.747-.53zm-3.409 1.472l.034-.025c.346.539.738 1.043 1.18 1.507a18.642 18.642 0 0 0-1.245 2.777l-2.708-.816a8.282 8.282 0 0 1 2.74-3.443zM22.25 32.807c.305-.13.62-.243.937-.336.025.432.069.85.134 1.251.028.171.06.336.097.498a8.236 8.236 0 0 1-1.168-1.413zm17.019-9.983a11.333 11.333 0 0 1 .871 8.685 11.317 11.317 0 0 1-5.525 6.755 11.301 11.301 0 0 1-7.78 1.102l.343-1.14c.676.137 1.36.209 2.045.209a10.225 10.225 0 0 0 6.036-1.977A10.127 10.127 0 0 0 39 31.166a10.197 10.197 0 0 0-.778-7.782 10.192 10.192 0 0 0-5.17-4.638l.341-1.14a11.307 11.307 0 0 1 5.875 5.218z"/>
    </g>
</svg>
