<svg xmlns="http://www.w3.org/2000/svg" xmlns:xlink="http://www.w3.org/1999/xlink" width="230" height="228" viewBox="0 0 230 228">
    <defs>
        <path id="a" d="M3.588 2.612h5.821a.653.653 0 1 1 0 1.306H3.588a.653.653 0 0 1 0-1.306z"/>
    </defs>
    <g fill="none" fill-rule="evenodd">
        <g fill="#4A90E2" fill-opacity=".05" transform="translate(2 8)">
            <ellipse cx="109.157" cy="109.626" rx="109.157" ry="109.626"/>
            <ellipse cx="109.157" cy="109.626" rx="82.694" ry="83.05"/>
            <ellipse cx="109.157" cy="109.626" rx="56.232" ry="56.474"/>
        </g>
        <g>
            <ellipse cx="113.298" cy="22.186" fill="#9FC2EB" rx="22.131" ry="22.186"/>
            <path fill="#FFF" d="M110.867 23.775l-.29-1.072a41.13 41.13 0 0 1-.43-1.59 53.853 53.853 0 0 0-.43-1.616h-.053a57.888 57.888 0 0 1-.832 3.206l-.29 1.072h2.325zm.423 1.524h-3.171l-.687 2.516h-1.982l3.131-9.801h2.299l3.145 9.801h-2.048l-.687-2.516zm5.853-1.749h-2.67v-1.377h2.67V19.35h1.44v2.822h2.669v1.377h-2.669v2.821h-1.44v-2.82zM151.5 91.393H75.756a2.43 2.43 0 0 0-2.426 2.427v44.814a2.43 2.43 0 0 0 2.426 2.429H151.5a2.43 2.43 0 0 0 2.427-2.429V93.821a2.43 2.43 0 0 0-2.427-2.428zm.326 47.241c0 .18-.146.327-.326.327H75.756a.327.327 0 0 1-.326-.327V93.821c0-.18.147-.326.326-.326H151.5c.18 0 .326.147.326.326v44.813zm0 0c0 .18-.146.327-.326.327H75.756a.327.327 0 0 1-.326-.327V93.821c0-.18.147-.326.326-.326H151.5c.18 0 .326.147.326.326v44.813z"/>
            <path fill="#4A4A4A" d="M160.285 142.652h-2.458V92.754c0-3.307-2.682-5.997-5.978-5.997H74.087c-3.297 0-5.979 2.69-5.979 5.997v49.898h-2.457c-.867 0-1.57.704-1.57 1.575v4.324c0 2.81 2.279 5.095 5.08 5.095h87.614c2.8 0 5.08-2.286 5.08-5.095v-4.324c0-.87-.704-1.575-1.57-1.575zM71.247 92.754a2.848 2.848 0 0 1 2.84-2.848h77.762a2.846 2.846 0 0 1 2.838 2.848v49.898h-83.44V92.754zm37.117 53.047h9.207v.823c0 .368-.299.668-.666.668h-7.875a.668.668 0 0 1-.667-.668v-.823zm50.351 2.75c0 1.074-.87 1.947-1.94 1.947H69.16c-1.07 0-1.94-.873-1.94-1.946V145.8h39.05v.823a2.766 2.766 0 0 0 2.759 2.767h7.875a2.766 2.766 0 0 0 2.759-2.767v-.823h39.051v2.75z"/>
            <g fill="#E6E6E6" transform="translate(78.615 96.029)">
                <rect width="69.366" height="2.857" rx="1.429"/>
                <rect width="69.366" height="2.857" y="6.588" rx="1.429"/>
                <rect width="69.366" height="2.857" y="13.176" rx="1.429"/>
                <rect width="69.366" height="2.857" y="19.764" rx="1.429"/>
                <rect width="69.366" height="2.857" y="26.352" rx="1.429"/>
                <rect width="69.366" height="2.857" y="32.94" rx="1.429"/>
                <rect width="69.366" height="2.857" y="39.528" rx="1.429"/>
            </g>
            <g transform="translate(111.247 113.75)">
                <ellipse cx="9.433" cy="3.265" stroke="#2C3E4E" stroke-width="2" rx="3.144" ry="3.265"/>
                <ellipse cx="3.144" cy="3.265" stroke="#2C3E4E" stroke-width="2" rx="3.144" ry="3.265"/>
                <use fill="#14C7FF" xlink:href="#a"/>
                <path stroke="#FFF" d="M3.588 2.112h5.821a1.153 1.153 0 1 1 0 2.306H3.588a1.153 1.153 0 1 1 0-2.306z"/>
            </g>
            <path fill="#2C3E4E" d="M91.465 113.248h4.33v1.015H92.65v1.858h2.95v.997h-2.95v2.02h3.21v1.016h-4.395zM106.554 113.248v.929l-3.626 4.924h3.8v1.053h-5.25v-1.006l3.58-4.847h-3.36v-1.053zM132.018 119.005l-1.378-3.64c-.092-.24-.185-.546-.342-1.044v5.833h-1.1v-6.906h1.683l1.637 4.291 1.572-4.291h1.702v6.906h-1.12v-5.833c-.138.574-.23.795-.314 1.044l-1.396 3.64h-.944zM142.264 113.248h4.33v1.015h-3.145v1.858h2.95v.997h-2.95v2.02h3.21v1.016h-4.395zM84.212 120.154l-1.104-2.768h-1.343v2.768h-1.168v-6.906h2.492c1.37 0 2.128.795 2.128 1.896v.355c0 .718-.347 1.34-1.023 1.657.438 1.006.85 1.992 1.287 2.998h-1.269zm-1.202-5.902h-1.192v2.135h1.09c.916 0 1.23-.372 1.23-.91v-.294c0-.549-.314-.93-1.128-.93z"/>
            <g transform="translate(0 62.915)">
                <ellipse cx="22.131" cy="22.186" fill="#9FC2EB" rx="22.131" ry="22.186"/>
                <g fill="#FFF">
                    <path d="M31.646 29.885l-3.295-5.951c.334-.16.534-.527.512-.939l-.245-2.106 1.403-1.51c.311-.32.334-.87.022-1.26l-1.402-1.556.289-2.128c.044-.458-.267-.916-.713-1.008l-2.026-.412-.98-1.854c-.2-.434-.69-.617-1.134-.434h-.023l-1.87.892-1.826-.915a.848.848 0 0 0-.667-.07.883.883 0 0 0-.512.436l-1.002 1.854-2.026.366c-.468.092-.78.527-.735 1.03l.245 2.106-1.403 1.51c-.311.321-.334.87-.022 1.26l1.403 1.556-.29 2.128c-.044.413.2.802.579.962l-3.317 6.043c-.09.137-.067.32 0 .457.089.138.222.23.378.23h3.562l1.626 2.906c.089.137.222.23.378.23a.429.429 0 0 0 .379-.23l3.183-5.585 3.184 5.654c.089.137.223.229.378.229a.429.429 0 0 0 .379-.23l1.625-2.975h3.562a.43.43 0 0 0 .379-.229.388.388 0 0 0 .022-.457zm-13.069 2.449l-1.38-2.45c-.089-.137-.223-.228-.378-.228h-3.073l3.073-5.585 1.268.229.98 1.854c.2.434.69.618 1.136.434h.022l.913-.434.445.8-3.006 5.38zm1.292-6.57h-.023l-.98-1.9c-.133-.228-.355-.411-.623-.434l-2.048-.39.29-2.105a.907.907 0 0 0-.223-.755l-1.38-1.557 1.402-1.51c.2-.207.29-.481.245-.756l-.245-2.083s0-.022.023-.045l2.026-.367a.902.902 0 0 0 .623-.457l1.002-1.854 1.825.915a.832.832 0 0 0 .802 0l1.848-.87h.022l.98 1.9c.133.229.356.412.6.435l2.027.412-.29 2.106a.907.907 0 0 0 .223.755l1.402 1.557-1.424 1.51c-.2.206-.29.48-.245.756l.245 2.105-2.004.344a.903.903 0 0 0-.624.458l-1.001 1.853-1.826-.915a.832.832 0 0 0-.802 0l-1.847.892zm7.57 3.892a.43.43 0 0 0-.38.229l-1.38 2.517-3.139-5.584a.368.368 0 0 0-.089-.16l-.49-.894.156-.068 1.826.915a.853.853 0 0 0 .4.092c.312 0 .624-.16.78-.458l1.002-1.854 1.336-.252 3.05 5.517h-3.073z"/>
                    <path d="M26.425 18.875c0-2.368-1.932-4.305-4.294-4.305-2.362 0-4.294 1.937-4.294 4.305 0 2.367 1.932 4.304 4.294 4.304 2.362 0 4.294-1.937 4.294-4.304zm-4.294 3.443a3.45 3.45 0 0 1-3.435-3.443 3.45 3.45 0 0 1 3.435-3.444 3.45 3.45 0 0 1 3.435 3.444 3.45 3.45 0 0 1-3.435 3.443z"/>
                </g>
            </g>
            <g transform="translate(184.976 62.915)">
                <ellipse cx="22.131" cy="22.186" fill="#9FC2EB" rx="22.131" ry="22.186"/>
                <g fill="#FFF">
                    <path d="M15.855 15.232h9.91v-.662h-9.91zM15.855 17.881h9.91v-.662h-9.91zM15.855 20.53h9.91v-.662h-9.91zM15.855 23.18h5.946v-.663h-5.946z"/>
                    <path d="M31.041 31.788H23.78v-2.32c0-1.252.71-2.384 1.814-2.946a2.947 2.947 0 0 0 3.635 0 3.307 3.307 0 0 1 1.813 2.947v2.32zm-13.206 0v-3.972h-3.961V12.584H27.08v8.628a2.981 2.981 0 0 0-2.612 3.358c.008.049.012.097.025.146a1.98 1.98 0 0 0 .06.25c.016.057.032.114.052.166l.025.073c.024.06.044.121.072.182l.012.028c.1.222.23.428.379.618a3.97 3.97 0 0 0-1.975 3.436v2.32h-5.283zm-.66-.469l-2.834-2.84h2.833v2.84zm12.548-7.145c0 .485-.153.958-.435 1.346-.004.004-.004.008-.008.012-.044.06-.089.117-.137.174-.008.008-.012.016-.02.02a2.29 2.29 0 0 1-1.713.768 2.296 2.296 0 0 1-1.717-.768l-.012-.016c-.052-.057-.096-.117-.14-.178 0-.004-.005-.004-.005-.004a2.32 2.32 0 0 1 1.878-3.67 2.312 2.312 0 0 1 2.31 2.316zm.004 1.86c.15-.19.279-.397.38-.619l.011-.028c.029-.06.049-.122.073-.182l.024-.073c.02-.056.036-.109.052-.166.009-.032.02-.068.029-.105.012-.048.024-.097.032-.15l.024-.145c.004-.04.012-.076.016-.117a2.981 2.981 0 0 0-2.628-3.241V11.92H13.214v16.363l4.155 4.167h14.334v-2.978c0-1.431-.762-2.732-1.975-3.44z"/>
                </g>
            </g>
            <path stroke="#797979" stroke-dasharray="3,7,3,7" stroke-linecap="round" stroke-linejoin="bevel" stroke-width="3" d="M184.857 102.651l-21.02 21.074M112.968 50.995v29.802M40.959 102.651l21.021 21.074"/>
        </g>
    </g>
</svg>
