<svg xmlns="http://www.w3.org/2000/svg" width="83" height="10" viewBox="0 0 83 10">
    <g fill="none" fill-rule="evenodd">
        <circle cx="44" cy="5" r="4" stroke="#3C435F" stroke-width="1.8"/>
        <circle cx="52" cy="5" r="4" stroke="#3C435F" stroke-width="1.8"/>
        <rect width="9.3" height="3.3" x="43.35" y="3.35" fill="#2CCAFF" stroke="#FFF" stroke-width="1.3" rx="1.65"/>
        <path fill="#3C435F" d="M1.824 4.472h1.183c.592 0 1.041-.12 1.35-.36.308-.238.462-.601.462-1.088 0-.486-.154-.825-.462-1.015-.309-.19-.758-.286-1.35-.286H1.824v2.749zM4.967 9.3L3.093 5.895h-1.27V9.3H0v-9h3.18c.476 0 .924.045 1.343.134.419.089.782.239 1.09.45.309.21.551.49.728.839.176.349.265.782.265 1.301 0 .681-.159 1.233-.475 1.654a2.797 2.797 0 0 1-1.263.937L7 9.3H4.967zM14 .3h4.882v1.496h-3.29v2.08h2.795v1.508h-2.796v2.408H19V9.3h-5zM26 8.218l3.906-6.422h-3.532V.3h5.58v1.07L28.06 7.792H32V9.3h-6zM63 .3h1.952l1.5 4.208c.096.284.187.572.274.864l.262.875h.06c.095-.292.184-.583.267-.875.084-.292.173-.58.268-.864L69.048.3H71v9h-1.607V5.542c0-.21.008-.444.024-.7a59.639 59.639 0 0 1 .119-1.556c.024-.256.047-.489.071-.7h-.047l-.715 2.117-1.357 3.782h-1.012l-1.369-3.782-.702-2.117h-.048c.024.211.048.444.072.7l.071.778c.024.264.044.523.06.779.015.255.023.488.023.699V9.3H63v-9zM78 0h4.882v1.496h-3.29v2.08h2.795v1.508h-2.796v2.408H83V9h-5z"/>
    </g>
</svg>
