<svg xmlns="http://www.w3.org/2000/svg" width="14" height="11" viewBox="0 0 14 11">
    <g fill="#FFF" fill-rule="evenodd">
        <path d="M0 3.366v5.98C0 10.259.766 11 1.709 11H12.29C13.234 11 14 10.259 14 9.346v-5.98c0-.868-.729-1.574-1.626-1.574H10.1l-.054-.23C9.826.643 8.989 0 8.01 0H5.986C5.01 0 4.174.642 3.95 1.563l-.054.23H1.626C.729 1.792 0 2.5 0 3.365zm4.177-.896a.346.346 0 0 0 .34-.263l.117-.492A1.373 1.373 0 0 1 5.986.678H8.01c.649 0 1.203.426 1.352 1.037l.117.492a.349.349 0 0 0 .34.263h2.551c.512 0 .926.401.926.896v5.98c0 .54-.451.976-1.008.976H1.709C1.15 10.322.7 9.885.7 9.346v-5.98c0-.495.414-.896.926-.896h2.551z"/>
        <path d="M3 3.5a.5.5 0 1 1-1 0 .5.5 0 0 1 1 0zM7 9c1.653 0 3-1.347 3-3S8.653 3 7 3 4 4.344 4 6s1.347 3 3 3zm0-5.286A2.29 2.29 0 0 1 9.286 6 2.29 2.29 0 0 1 7 8.286 2.29 2.29 0 0 1 4.714 6 2.29 2.29 0 0 1 7 3.714z"/>
    </g>
</svg>
