<svg xmlns="http://www.w3.org/2000/svg" xmlns:xlink="http://www.w3.org/1999/xlink" width="80" height="80" viewBox="0 0 80 80">
    <defs>
        <path id="a" d="M1.624 1.437H4.63a.305.305 0 1 1 0 .61H1.624a.305.305 0 1 1 0-.61z"/>
    </defs>
    <g fill="none" fill-rule="evenodd">
        <circle cx="40" cy="40" r="40" fill="#F2F5F8"/>
        <path d="M62.524 22.353H18.3c-.781 0-1.417.645-1.417 1.437v26.537a1.43 1.43 0 0 0 1.417 1.438h44.225a1.43 1.43 0 0 0 1.417-1.438V23.79a1.43 1.43 0 0 0-1.417-1.438zm.19 27.974a.192.192 0 0 1-.19.193H18.3a.192.192 0 0 1-.19-.193V23.79c0-.106.085-.193.19-.193h44.225c.105 0 .19.087.19.193v26.536zm0 0a.192.192 0 0 1-.19.193H18.3a.192.192 0 0 1-.19-.193V23.79c0-.106.085-.193.19-.193h44.225c.105 0 .19.087.19.193v26.536z"/>
        <path fill="#7C848A" d="M67.722 53.426h-1.45v-29.84c0-1.977-1.58-3.586-3.524-3.586H16.899c-1.943 0-3.525 1.609-3.525 3.586v29.84h-1.449a.933.933 0 0 0-.925.941v2.586C11 58.633 12.344 60 13.995 60h51.657c1.652 0 2.995-1.367 2.995-3.047v-2.586a.933.933 0 0 0-.925-.941zm-52.497-29.84c0-.939.751-1.703 1.674-1.703h45.849c.923 0 1.673.764 1.673 1.703v29.84H15.225v-29.84zM37.11 55.31h5.429v.492c0 .22-.177.4-.393.4h-4.643a.397.397 0 0 1-.394-.4v-.492h.001zm29.687 1.645c0 .641-.513 1.164-1.144 1.164H13.995c-.63 0-1.144-.523-1.144-1.164v-1.645h23.024v.492c0 .912.73 1.655 1.627 1.655h4.643c.897 0 1.627-.743 1.627-1.655v-.492h23.024v1.645z"/>
        <g fill="#E6E6E6" transform="translate(19.235 25.882)">
            <rect width="41.694" height="1.737" rx=".869"/>
            <rect width="41.694" height="1.737" y="4.006" rx=".869"/>
            <rect width="41.694" height="1.737" y="8.012" rx=".869"/>
            <rect width="41.694" height="1.737" y="12.018" rx=".869"/>
            <rect width="41.694" height="1.737" y="16.023" rx=".869"/>
            <rect width="41.694" height="1.737" y="20.029" rx=".869"/>
            <rect width="41.694" height="1.737" y="24.035" rx=".869"/>
        </g>
        <g transform="translate(39.41 36.747)">
            <circle cx="4.84" cy="1.75" r="1.75" stroke="#2C3E4E" stroke-width=".8"/>
            <circle cx="1.75" cy="1.75" r="1.75" stroke="#2C3E4E" stroke-width=".8"/>
            <use fill="#14C7FF" xlink:href="#a"/>
            <path stroke="#FFF" stroke-width=".6" d="M1.624 1.137H4.63a.605.605 0 1 1 0 1.21H1.624a.605.605 0 1 1 0-1.21z"/>
        </g>
        <path fill="#2C3E4E" d="M26.769 36.47h2.585v.56h-1.878v1.022h1.761v.548h-1.76v1.112h1.916v.559H26.77zM35.865 36.47v.512L33.7 39.69h2.269v.58h-3.135v-.554l2.137-2.667h-2.006v-.58zM51.534 39.638l-.822-2.003c-.056-.131-.11-.3-.205-.574v3.21h-.657v-3.8h1.005l.977 2.36.94-2.36h1.015v3.8h-.668v-3.21c-.083.316-.138.437-.188.574l-.833 2.003h-.564zM57.228 36.47h2.585v.56h-1.878v1.022h1.761v.548h-1.76v1.112h1.916v.559h-2.624zM22.57 40.27l-.66-1.522h-.8v1.523h-.698v-3.8H21.9c.817 0 1.27.437 1.27 1.043v.195a.961.961 0 0 1-.61.912c.261.553.506 1.096.768 1.65h-.758zm-.717-3.247h-.712v1.175h.651c.546 0 .734-.205.734-.501v-.162c0-.302-.188-.512-.673-.512z"/>
    </g>
</svg>
