<svg xmlns="http://www.w3.org/2000/svg" width="80" height="80" viewBox="0 0 80 80">
    <g fill="none" fill-rule="evenodd">
        <circle cx="40" cy="40" r="40" fill="#F2F5F8"/>
        <g fill="#7C848A">
            <path d="M21.983 32.105c-1.098 0-1.992-.9-1.992-2.006v-8.024c0-1.106.894-2.006 1.992-2.006H57.83c1.098 0 1.991.9 1.991 2.006v8.024a2.001 2.001 0 0 1-1.991 2.006H21.983zm37.838 4.012v8.025a2.001 2.001 0 0 1-1.991 2.006H21.983c-1.098 0-1.992-.9-1.992-2.006v-8.025c0-1.105.894-2.006 1.992-2.006H57.83c1.098 0 1.991.9 1.991 2.006zm0 14.043v8.024a2.001 2.001 0 0 1-1.991 2.006H21.983c-1.098 0-1.992-.9-1.992-2.006V50.16c0-1.106.894-2.006 1.992-2.006H57.83c1.098 0 1.991.9 1.991 2.006zm1.992-20.06v-8.025c0-2.213-1.787-4.012-3.983-4.012H21.983c-2.197 0-3.983 1.8-3.983 4.012v8.024c0 1.204.54 2.273 1.376 3.01A3.999 3.999 0 0 0 18 36.116v8.025c0 1.204.54 2.273 1.376 3.009A4 4 0 0 0 18 50.16v8.024c0 2.213 1.786 4.012 3.983 4.012H57.83c2.196 0 3.983-1.799 3.983-4.012V50.16a4 4 0 0 0-1.376-3.01 3.999 3.999 0 0 0 1.376-3.008v-8.025c0-1.204-.54-2.273-1.376-3.009a3.999 3.999 0 0 0 1.376-3.009z"/>
            <path d="M24.75 22.5c-.622 0-1.125.44-1.125.984v5.907c0 .544.503.984 1.125.984s1.125-.44 1.125-.984v-5.907c0-.544-.503-.984-1.125-.984M29.25 22.5c-.622 0-1.125.44-1.125.984v5.907c0 .544.503.984 1.125.984s1.125-.44 1.125-.984v-5.907c0-.544-.503-.984-1.125-.984M32.625 22.5c-.622 0-1.125.44-1.125.984v5.907c0 .544.503.984 1.125.984s1.125-.44 1.125-.984v-5.907c0-.544-.503-.984-1.125-.984M54 23.625a2.25 2.25 0 1 1 0 4.5 2.25 2.25 0 0 1 0-4.5M48.375 23.625a2.25 2.25 0 1 1 0 4.5 2.25 2.25 0 0 1 0-4.5M24.75 43.875c.622 0 1.125-.44 1.125-.984v-5.907c0-.544-.503-.984-1.125-.984s-1.125.44-1.125.984v5.907c0 .544.503.984 1.125.984M29.25 43.875c.622 0 1.125-.44 1.125-.984v-5.907c0-.544-.503-.984-1.125-.984s-1.125.44-1.125.984v5.907c0 .544.503.984 1.125.984M32.625 43.875c.622 0 1.125-.44 1.125-.984v-5.907c0-.544-.503-.984-1.125-.984s-1.125.44-1.125.984v5.907c0 .544.503.984 1.125.984M54 38.25a2.25 2.25 0 1 1 0 4.5 2.25 2.25 0 0 1 0-4.5M48.375 38.25a2.25 2.25 0 1 1 0 4.5 2.25 2.25 0 0 1 0-4.5M24.75 58.5c.622 0 1.125-.44 1.125-.984v-5.907c0-.544-.503-.984-1.125-.984s-1.125.44-1.125.984v5.907c0 .544.503.984 1.125.984M29.25 58.5c.622 0 1.125-.44 1.125-.984v-5.907c0-.544-.503-.984-1.125-.984s-1.125.44-1.125.984v5.907c0 .544.503.984 1.125.984M32.625 58.5c.622 0 1.125-.44 1.125-.984v-5.907c0-.544-.503-.984-1.125-.984s-1.125.44-1.125.984v5.907c0 .544.503.984 1.125.984M54 50.625a2.25 2.25 0 1 1 0 4.5 2.25 2.25 0 0 1 0-4.5M48.375 50.625a2.25 2.25 0 1 1 0 4.5 2.25 2.25 0 0 1 0-4.5"/>
        </g>
    </g>
</svg>
