<svg xmlns="http://www.w3.org/2000/svg" xmlns:xlink="http://www.w3.org/1999/xlink" width="147" height="145" viewBox="0 0 147 145">
    <defs>
        <rect id="b" width="147" height="145" rx="5"/>
        <filter id="a" width="104.8%" height="104.8%" x="-2.4%" y="-1.7%" filterUnits="objectBoundingBox">
            <feOffset dy="1" in="SourceAlpha" result="shadowOffsetOuter1"/>
            <feGaussianBlur in="shadowOffsetOuter1" result="shadowBlurOuter1" stdDeviation="1"/>
            <feComposite in="shadowBlurOuter1" in2="SourceAlpha" operator="out" result="shadowBlurOuter1"/>
            <feColorMatrix in="shadowBlurOuter1" values="0 0 0 0 0.591571003 0 0 0 0 0.591571003 0 0 0 0 0.591571003 0 0 0 0.318982111 0"/>
        </filter>
    </defs>
    <g fill="none" fill-rule="evenodd">
        <use fill="#000" filter="url(#a)" xlink:href="#b"/>
        <use fill="#EFEFEF" xlink:href="#b"/>
        <rect width="144" height="142" x="1.5" y="1.5" stroke="#F8F8F8" stroke-width="3" rx="5"/>
        <path fill="#FFF" d="M73.48 73C87.514 73 99 61.545 99 47.5 99 33.487 87.514 22 73.48 22 59.486 22 48 33.487 48 47.5 48 61.545 59.486 73 73.48 73zm0 12C56.438 85 23 93.224 23 110.32V123h101v-12.68C124 93.224 90.53 85 73.48 85z"/>
        <rect width="141" height="139" x="3" y="3" fill="#1E1E1E" fill-opacity=".75" rx="3"/>
        <g fill="#FFF">
            <path d="M54 66.85v17.351C54 86.849 56.188 89 58.882 89h30.236C91.812 89 94 86.85 94 84.201v-17.35c0-2.52-2.081-4.566-4.645-4.566h-6.498l-.155-.667c-.628-2.672-3.02-4.534-5.812-4.534h-5.788c-2.784 0-5.176 1.862-5.812 4.534l-.155.667h-6.49C56.08 62.285 54 64.339 54 66.85zm11.935-2.6a.991.991 0 0 0 .971-.762l.335-1.428c.425-1.774 2.008-3.01 3.861-3.01h5.788c1.853 0 3.437 1.236 3.861 3.01l.335 1.428a1 1 0 0 0 .971.763h7.29c1.461 0 2.645 1.163 2.645 2.6V84.2c0 1.565-1.29 2.833-2.882 2.833H58.882C57.29 87.034 56 85.766 56 84.2v-17.35c0-1.437 1.184-2.6 2.645-2.6h7.29z"/>
            <path d="M62.302 68.907c0 .822-.676 1.488-1.51 1.488-.833 0-1.509-.666-1.509-1.488a1.5 1.5 0 0 1 1.51-1.488 1.5 1.5 0 0 1 1.509 1.488zM74.423 83.79c4.574 0 8.302-3.675 8.302-8.185 0-4.511-3.728-8.186-8.302-8.186-4.575 0-8.302 3.667-8.302 8.186 0 4.518 3.727 8.186 8.302 8.186zm0-14.422c3.485 0 6.325 2.8 6.325 6.237 0 3.436-2.84 6.236-6.325 6.236-3.486 0-6.326-2.8-6.326-6.236 0-3.437 2.84-6.237 6.326-6.237z"/>
        </g>
    </g>
</svg>
