<svg xmlns="http://www.w3.org/2000/svg" xmlns:xlink="http://www.w3.org/1999/xlink" width="244" height="42" viewBox="0 0 244 42">
    <defs>
        <path id="a" d="M109.203 25.5a1.88 1.88 0 0 1 1.88-1.889h15.128a1.88 1.88 0 0 1 1.88 1.889 1.88 1.88 0 0 1-1.88 1.889h-15.128a1.88 1.88 0 0 1-1.88-1.889z"/>
    </defs>
    <g fill="none" fill-rule="evenodd">
        <text fill="#FFF" font-family="SpoqaHanSans-Regular, SpoqaHanSans" font-size="10">
            <tspan x="215" y="12">Beta</tspan>
        </text>
        <circle cx="127.147" cy="25.5" r="8.5" stroke="#FFF" stroke-width="3.5"/>
        <circle cx="110.147" cy="25.5" r="8.5" stroke="#FFF" stroke-width="3.5"/>
        <use fill="#14C7FF" xlink:href="#a"/>
        <path stroke="#3C435F" stroke-width="3.5" d="M107.453 25.5a3.63 3.63 0 0 1 3.63-3.639h15.128a3.63 3.63 0 0 1 3.63 3.639 3.63 3.63 0 0 1-3.63 3.639h-15.128a3.63 3.63 0 0 1-3.63-3.639z"/>
        <text fill="#FFF" font-family="SpoqaHanSans-Bold, SpoqaHanSans" font-size="24" font-weight="bold">
            <tspan x="34.76" y="34">E</tspan>
        </text>
        <text fill="#FFF" font-family="SpoqaHanSans-Bold, SpoqaHanSans" font-size="24" font-weight="bold">
            <tspan x="68.204" y="34">Z</tspan>
        </text>
        <text fill="#FFF" font-family="SpoqaHanSans-Bold, SpoqaHanSans" font-size="24" font-weight="bold">
            <tspan x="152.656" y="34">M</tspan>
        </text>
        <text fill="#FFF" font-family="SpoqaHanSans-Bold, SpoqaHanSans" font-size="24" font-weight="bold">
            <tspan x="194" y="34">E</tspan>
        </text>
        <text fill="#FFF" font-family="SpoqaHanSans-Bold, SpoqaHanSans" font-size="24" font-weight="bold">
            <tspan x="0" y="34">R</tspan>
        </text>
    </g>
</svg>
