<svg xmlns="http://www.w3.org/2000/svg" width="67" height="67" viewBox="0 0 67 67">
    <g fill="none" fill-rule="evenodd">
        <g>
            <circle cx="33.5" cy="33.5" r="33.5" fill="#F6F6F6"/>
            <g fill="#C4C4C4">
                <path d="M47.903 45.125l-4.988-8.986c.506-.242.81-.795.775-1.417l-.37-3.18 2.123-2.28c.471-.485.505-1.314.033-1.902l-2.123-2.35.438-3.214c.068-.691-.404-1.383-1.078-1.521l-3.067-.622-1.482-2.8c-.304-.656-1.045-.933-1.72-.656h-.033l-2.83 1.348-2.764-1.383a1.287 1.287 0 0 0-1.011-.104 1.336 1.336 0 0 0-.775.657l-1.517 2.8-3.067.553c-.707.138-1.18.795-1.112 1.555l.371 3.18-2.123 2.28c-.472.485-.506 1.314-.034 1.901l2.123 2.35-.438 3.215c-.067.622.304 1.21.876 1.451l-5.021 9.125c-.135.207-.101.484 0 .69.135.208.337.347.573.347h5.392l2.46 4.389c.135.207.337.346.573.346a.65.65 0 0 0 .573-.346l4.82-8.433 4.818 8.536c.135.208.337.346.573.346a.65.65 0 0 0 .573-.346l2.46-4.492h5.392a.65.65 0 0 0 .573-.346.584.584 0 0 0 .034-.691zM28.12 48.823l-2.09-3.698c-.135-.208-.337-.346-.573-.346h-4.65l4.65-8.433 1.921.345 1.483 2.8c.303.657 1.045.933 1.719.657h.034l1.381-.657.674 1.21-4.55 8.122zm1.954-9.92h-.033l-1.483-2.868c-.202-.345-.54-.622-.944-.656l-3.1-.588.438-3.18c.067-.415-.068-.864-.337-1.14l-2.09-2.35 2.124-2.281a1.32 1.32 0 0 0 .37-1.141l-.37-3.145s0-.035.033-.07l3.067-.552c.37-.07.742-.311.944-.691l1.516-2.8 2.764 1.383c.37.207.842.207 1.213 0l2.797-1.314h.034L38.5 20.38c.203.345.54.622.91.656l3.067.622-.438 3.18c-.067.415.067.864.337 1.14l2.123 2.35-2.157 2.282c-.303.311-.438.726-.37 1.14l.37 3.18-3.033.518c-.37.07-.741.312-.943.692l-1.517 2.8-2.763-1.384a1.263 1.263 0 0 0-1.214 0l-2.797 1.348zm11.459 5.876a.65.65 0 0 0-.574.346l-2.089 3.801-4.752-8.432a.556.556 0 0 0-.134-.243l-.742-1.348.236-.103 2.763 1.382c.203.104.405.139.607.139.472 0 .944-.242 1.18-.691l1.516-2.8 2.022-.38 4.617 8.33h-4.65z"/>
                <path d="M40 28.5c0-3.575-2.925-6.5-6.5-6.5S27 24.925 27 28.5s2.925 6.5 6.5 6.5 6.5-2.925 6.5-6.5zm-6.5 5.2c-2.86 0-5.2-2.34-5.2-5.2 0-2.86 2.34-5.2 5.2-5.2 2.86 0 5.2 2.34 5.2 5.2 0 2.86-2.34 5.2-5.2 5.2z"/>
            </g>
        </g>
        <g>
            <circle cx="33.5" cy="33.5" r="33.5" fill="#F6F6F6"/>
            <g fill="#4A4A4A">
                <path d="M47.903 45.125l-4.988-8.986c.506-.242.81-.795.775-1.417l-.37-3.18 2.123-2.28c.471-.485.505-1.314.033-1.902l-2.123-2.35.438-3.214c.068-.691-.404-1.383-1.078-1.521l-3.067-.622-1.482-2.8c-.304-.656-1.045-.933-1.72-.656h-.033l-2.83 1.348-2.764-1.383a1.287 1.287 0 0 0-1.011-.104 1.336 1.336 0 0 0-.775.657l-1.517 2.8-3.067.553c-.707.138-1.18.795-1.112 1.555l.371 3.18-2.123 2.28c-.472.485-.506 1.314-.034 1.901l2.123 2.35-.438 3.215c-.067.622.304 1.21.876 1.451l-5.021 9.125c-.135.207-.101.484 0 .69.135.208.337.347.573.347h5.392l2.46 4.389c.135.207.337.346.573.346a.65.65 0 0 0 .573-.346l4.82-8.433 4.818 8.536c.135.208.337.346.573.346a.65.65 0 0 0 .573-.346l2.46-4.492h5.392a.65.65 0 0 0 .573-.346.584.584 0 0 0 .034-.691zM28.12 48.823l-2.09-3.698c-.135-.208-.337-.346-.573-.346h-4.65l4.65-8.433 1.921.345 1.483 2.8c.303.657 1.045.933 1.719.657h.034l1.381-.657.674 1.21-4.55 8.122zm1.954-9.92h-.033l-1.483-2.868c-.202-.345-.54-.622-.944-.656l-3.1-.588.438-3.18c.067-.415-.068-.864-.337-1.14l-2.09-2.35 2.124-2.281a1.32 1.32 0 0 0 .37-1.141l-.37-3.145s0-.035.033-.07l3.067-.552c.37-.07.742-.311.944-.691l1.516-2.8 2.764 1.383c.37.207.842.207 1.213 0l2.797-1.314h.034L38.5 20.38c.203.345.54.622.91.656l3.067.622-.438 3.18c-.067.415.067.864.337 1.14l2.123 2.35-2.157 2.282c-.303.311-.438.726-.37 1.14l.37 3.18-3.033.518c-.37.07-.741.312-.943.692l-1.517 2.8-2.763-1.384a1.263 1.263 0 0 0-1.214 0l-2.797 1.348zm11.459 5.876a.65.65 0 0 0-.574.346l-2.089 3.801-4.752-8.432a.556.556 0 0 0-.134-.243l-.742-1.348.236-.103 2.763 1.382c.203.104.405.139.607.139.472 0 .944-.242 1.18-.691l1.516-2.8 2.022-.38 4.617 8.33h-4.65z"/>
                <path d="M40 28.5c0-3.575-2.925-6.5-6.5-6.5S27 24.925 27 28.5s2.925 6.5 6.5 6.5 6.5-2.925 6.5-6.5zm-6.5 5.2c-2.86 0-5.2-2.34-5.2-5.2 0-2.86 2.34-5.2 5.2-5.2 2.86 0 5.2 2.34 5.2 5.2 0 2.86-2.34 5.2-5.2 5.2z"/>
            </g>
        </g>
    </g>
</svg>
