<?xml version="1.0" encoding="UTF-8"?>
<svg width="67px" height="67px" viewBox="0 0 67 67" version="1.1" xmlns="http://www.w3.org/2000/svg" xmlns:xlink="http://www.w3.org/1999/xlink">
    <!-- Generator: sketchtool 50.2 (55047) - http://www.bohemiancoding.com/sketch -->
    <title>162F42EF-A8BA-47A0-BB28-2E32FCCD6658</title>
    <desc>Created with sketchtool.</desc>
    <defs></defs>
    <g id="Symbols" stroke="none" stroke-width="1" fill="none" fill-rule="evenodd">
        <g id="cnt/증명서/기본" transform="translate(-77.000000, -55.000000)">
            <g id="icon/Contents/Card/증명서/졸업증명서_Color" transform="translate(77.000000, 55.000000)">
                <g id="Group-3">
                    <circle id="Oval" fill="#F6F6F6" cx="33.5" cy="33.5" r="33.5"></circle>
                    <g id="Group-2" transform="translate(19.000000, 16.000000)" fill="#C4C4C4">
                        <path d="M28.9029173,29.1246646 L23.9153739,20.1388004 C24.4205629,19.8966544 24.7241818,19.3439955 24.6903762,18.7216737 L24.3197779,15.541806 L26.4428986,13.2610755 C26.9142819,12.7772155 26.9480876,11.9477411 26.4761777,11.3600888 L24.3534782,9.01012746 L24.7911612,5.79569831 C24.8586672,5.10468569 24.3867573,4.41313304 23.7129613,4.27477931 L20.6461261,3.65288955 L19.1635223,0.853197584 C18.8603246,0.196746393 18.1186014,-0.0795290513 17.4448055,0.196746393 L17.4109998,0.196746393 L14.5802775,1.54475023 L11.81664,0.162184961 C11.5134423,-0.010838206 11.142844,-0.0453996376 10.8058407,0.0583926617 C10.4685215,0.162184961 10.1991295,0.403898973 10.0308385,0.715275871 L8.51411305,3.51453582 L5.44727782,4.06762673 C4.73967623,4.20598046 4.26776631,4.86253966 4.33527228,5.62278315 L4.7059759,8.80254286 L2.58274988,11.0837053 C2.11094527,11.5676734 2.07724494,12.3970397 2.54904955,12.9843681 L4.67217026,15.3346534 L4.23406599,18.5486506 C4.16656001,19.1709723 4.53768488,19.7586247 5.11027453,20.0004467 L0.0890308614,29.1246646 C-0.0459810807,29.3318172 -0.0121754384,29.6086327 0.0890308614,29.8157853 C0.22393749,30.0232619 0.425928835,30.1617236 0.662041764,30.1617236 L6.05398905,30.1617236 L8.51411305,34.5505934 C8.64901968,34.758178 8.85101102,34.8966397 9.08712395,34.8966397 C9.32281563,34.8966397 9.55903387,34.758178 9.65981892,34.5505934 L14.4790712,26.1178201 L19.2984289,34.6543857 C19.4329143,34.8619703 19.6353269,35 19.8711238,35 C20.1072368,35 20.3429284,34.8619703 20.4441347,34.6543857 L22.9041534,30.1617236 L28.296206,30.1617236 C28.532319,30.1617236 28.7680106,30.0232619 28.8692169,29.8157853 C29.037508,29.6086327 29.037508,29.3318172 28.9029173,29.1246646 Z M9.12082428,32.8225218 L7.03150921,29.1246646 C6.89649727,28.91708 6.69408467,28.7791583 6.458393,28.7791583 L1.80774763,28.7791583 L6.458393,20.345953 L8.37910111,20.6914593 L9.86223151,23.4911513 C10.1653238,24.1476025 10.9066258,24.4244179 11.5809483,24.1476025 L11.6146486,24.1476025 L12.9960461,23.4911513 L13.6703687,24.7006934 L9.12082428,32.8225218 Z M11.075338,22.9034989 L11.0416377,22.9034989 L9.55903387,20.0350081 C9.35662127,19.6895018 9.0197233,19.4126863 8.61531935,19.3785569 L5.51467848,18.7907966 L5.95278275,15.6110369 C6.02028872,15.1962997 5.88538209,14.7470011 5.61588478,14.4706176 L3.52646439,12.1203323 L5.64969042,9.83960182 C5.95278275,9.52822492 6.08779469,9.11348774 6.02028872,8.69875056 L5.64969042,5.5539843 C5.64969042,5.5539843 5.64969042,5.51942287 5.68339075,5.48475343 L8.75022598,4.93166252 C9.12082428,4.86253966 9.4915279,4.62071764 9.69351924,4.2406499 L11.2102447,1.44095793 L13.9735663,2.8235232 C14.3441646,3.03067578 14.8160745,3.03067578 15.1866728,2.8235232 L17.9841161,1.51008079 L18.0178164,1.51008079 L19.5004202,4.37857161 C19.7028328,4.72407792 20.0397308,5.00089339 20.4104344,5.03545482 L23.4772696,5.65734458 L23.0391654,8.83710429 C22.9716594,9.25184147 23.1061448,9.70114008 23.3760633,9.97752353 L25.4991841,12.3279169 L23.342363,14.6090794 C23.0391654,14.9200243 22.9041534,15.3346534 22.9716594,15.7493906 L23.342363,18.9292583 L20.3092281,19.4473558 C19.9385245,19.5164786 19.5679262,19.7586247 19.3655136,20.1388004 L17.8491041,22.9380604 L15.0858878,21.5554951 C14.7148682,21.3483425 14.2433796,21.3483425 13.87236,21.5554951 L11.075338,22.9034989 Z M22.5335551,28.7791583 C22.2974422,28.7791583 22.0616452,28.91708 21.9604389,29.1246646 L19.8711238,32.9263141 L15.1191669,24.4935408 C15.0858878,24.3897485 15.0521875,24.3206256 14.9846815,24.2513948 L14.2433796,22.9034989 L14.4790712,22.8001387 L17.2423929,24.1821639 C17.4448055,24.2859562 17.6466915,24.3206256 17.8491041,24.3206256 C18.321014,24.3206256 18.7928186,24.0788036 19.0286156,23.629505 L20.545341,20.829813 L22.5672555,20.4497453 L27.1842005,28.7791583 L22.5335551,28.7791583 Z" id="Fill-1"></path>
                        <path d="M21,12.5 C21,8.92510156 18.075,6 14.5,6 C10.9251016,6 8,8.92510156 8,12.5 C8,16.075 10.9251016,19 14.5,19 C18.075,19 21,16.075 21,12.5 Z M14.5,17.7 C11.64,17.7 9.30010156,15.3601016 9.30010156,12.5 C9.30010156,9.64 11.64,7.30010156 14.5,7.30010156 C17.3601016,7.30010156 19.7,9.64 19.7,12.5 C19.7,15.3601016 17.3601016,17.7 14.5,17.7 Z" id="Fill-4"></path>
                    </g>
                </g>
                <g id="Group-3">
                    <circle id="Oval" fill="#F6F6F6" cx="33.5" cy="33.5" r="33.5"></circle>
                    <g id="Group-2" transform="translate(19.000000, 16.000000)" fill="#4A4A4A">
                        <path d="M28.9029173,29.1246646 L23.9153739,20.1388004 C24.4205629,19.8966544 24.7241818,19.3439955 24.6903762,18.7216737 L24.3197779,15.541806 L26.4428986,13.2610755 C26.9142819,12.7772155 26.9480876,11.9477411 26.4761777,11.3600888 L24.3534782,9.01012746 L24.7911612,5.79569831 C24.8586672,5.10468569 24.3867573,4.41313304 23.7129613,4.27477931 L20.6461261,3.65288955 L19.1635223,0.853197584 C18.8603246,0.196746393 18.1186014,-0.0795290513 17.4448055,0.196746393 L17.4109998,0.196746393 L14.5802775,1.54475023 L11.81664,0.162184961 C11.5134423,-0.010838206 11.142844,-0.0453996376 10.8058407,0.0583926617 C10.4685215,0.162184961 10.1991295,0.403898973 10.0308385,0.715275871 L8.51411305,3.51453582 L5.44727782,4.06762673 C4.73967623,4.20598046 4.26776631,4.86253966 4.33527228,5.62278315 L4.7059759,8.80254286 L2.58274988,11.0837053 C2.11094527,11.5676734 2.07724494,12.3970397 2.54904955,12.9843681 L4.67217026,15.3346534 L4.23406599,18.5486506 C4.16656001,19.1709723 4.53768488,19.7586247 5.11027453,20.0004467 L0.0890308614,29.1246646 C-0.0459810807,29.3318172 -0.0121754384,29.6086327 0.0890308614,29.8157853 C0.22393749,30.0232619 0.425928835,30.1617236 0.662041764,30.1617236 L6.05398905,30.1617236 L8.51411305,34.5505934 C8.64901968,34.758178 8.85101102,34.8966397 9.08712395,34.8966397 C9.32281563,34.8966397 9.55903387,34.758178 9.65981892,34.5505934 L14.4790712,26.1178201 L19.2984289,34.6543857 C19.4329143,34.8619703 19.6353269,35 19.8711238,35 C20.1072368,35 20.3429284,34.8619703 20.4441347,34.6543857 L22.9041534,30.1617236 L28.296206,30.1617236 C28.532319,30.1617236 28.7680106,30.0232619 28.8692169,29.8157853 C29.037508,29.6086327 29.037508,29.3318172 28.9029173,29.1246646 Z M9.12082428,32.8225218 L7.03150921,29.1246646 C6.89649727,28.91708 6.69408467,28.7791583 6.458393,28.7791583 L1.80774763,28.7791583 L6.458393,20.345953 L8.37910111,20.6914593 L9.86223151,23.4911513 C10.1653238,24.1476025 10.9066258,24.4244179 11.5809483,24.1476025 L11.6146486,24.1476025 L12.9960461,23.4911513 L13.6703687,24.7006934 L9.12082428,32.8225218 Z M11.075338,22.9034989 L11.0416377,22.9034989 L9.55903387,20.0350081 C9.35662127,19.6895018 9.0197233,19.4126863 8.61531935,19.3785569 L5.51467848,18.7907966 L5.95278275,15.6110369 C6.02028872,15.1962997 5.88538209,14.7470011 5.61588478,14.4706176 L3.52646439,12.1203323 L5.64969042,9.83960182 C5.95278275,9.52822492 6.08779469,9.11348774 6.02028872,8.69875056 L5.64969042,5.5539843 C5.64969042,5.5539843 5.64969042,5.51942287 5.68339075,5.48475343 L8.75022598,4.93166252 C9.12082428,4.86253966 9.4915279,4.62071764 9.69351924,4.2406499 L11.2102447,1.44095793 L13.9735663,2.8235232 C14.3441646,3.03067578 14.8160745,3.03067578 15.1866728,2.8235232 L17.9841161,1.51008079 L18.0178164,1.51008079 L19.5004202,4.37857161 C19.7028328,4.72407792 20.0397308,5.00089339 20.4104344,5.03545482 L23.4772696,5.65734458 L23.0391654,8.83710429 C22.9716594,9.25184147 23.1061448,9.70114008 23.3760633,9.97752353 L25.4991841,12.3279169 L23.342363,14.6090794 C23.0391654,14.9200243 22.9041534,15.3346534 22.9716594,15.7493906 L23.342363,18.9292583 L20.3092281,19.4473558 C19.9385245,19.5164786 19.5679262,19.7586247 19.3655136,20.1388004 L17.8491041,22.9380604 L15.0858878,21.5554951 C14.7148682,21.3483425 14.2433796,21.3483425 13.87236,21.5554951 L11.075338,22.9034989 Z M22.5335551,28.7791583 C22.2974422,28.7791583 22.0616452,28.91708 21.9604389,29.1246646 L19.8711238,32.9263141 L15.1191669,24.4935408 C15.0858878,24.3897485 15.0521875,24.3206256 14.9846815,24.2513948 L14.2433796,22.9034989 L14.4790712,22.8001387 L17.2423929,24.1821639 C17.4448055,24.2859562 17.6466915,24.3206256 17.8491041,24.3206256 C18.321014,24.3206256 18.7928186,24.0788036 19.0286156,23.629505 L20.545341,20.829813 L22.5672555,20.4497453 L27.1842005,28.7791583 L22.5335551,28.7791583 Z" id="Fill-1"></path>
                        <path d="M21,12.5 C21,8.92510156 18.075,6 14.5,6 C10.9251016,6 8,8.92510156 8,12.5 C8,16.075 10.9251016,19 14.5,19 C18.075,19 21,16.075 21,12.5 Z M14.5,17.7 C11.64,17.7 9.30010156,15.3601016 9.30010156,12.5 C9.30010156,9.64 11.64,7.30010156 14.5,7.30010156 C17.3601016,7.30010156 19.7,9.64 19.7,12.5 C19.7,15.3601016 17.3601016,17.7 14.5,17.7 Z" id="Fill-4"></path>
                    </g>
                </g>
            </g>
        </g>
    </g>
</svg>