<?xml version="1.0" encoding="UTF-8"?>
<svg width="247px" height="19px" viewBox="0 0 247 19" version="1.1" xmlns="http://www.w3.org/2000/svg" xmlns:xlink="http://www.w3.org/1999/xlink">
    <!-- Generator: Sketch 50.2 (55047) - http://www.bohemiancoding.com/sketch -->
    <title>Group</title>
    <desc>Created with Sketch.</desc>
    <defs></defs>
    <g id="Symbols" stroke="none" stroke-width="1" fill="none" fill-rule="evenodd">
        <g id="기업회원/Topbar/login-White" transform="translate(-115.000000, -26.000000)">
            <g id="Group" transform="translate(115.000000, 24.000000)">
                <text id="Developers" font-family="SpoqaHanSans-Bold, SpoqaHanSans" font-size="15" font-weight="bold" fill="#878D91">
                    <tspan x="164" y="17">Developers</tspan>
                </text>
                <g id="기업회원/로고/Black" transform="translate(0.000000, 3.000000)">
                    <g id="Group-8">
                        <g id="Group-6" transform="translate(71.000000, 1.000000)">
                            <circle id="Oval" stroke="#FFFFFF" stroke-width="2.9" cx="7" cy="7" r="7"></circle>
                            <circle id="Oval" stroke="#FFFFFF" stroke-width="2.9" cx="20" cy="7" r="7"></circle>
                            <rect id="Rectangle-4" stroke="#2B2C2C" stroke-width="2.5" fill="#2CCAFF" x="5.75" y="4.75" width="16.5" height="5" rx="2.5"></rect>
                        </g>
                        <g id="Group" fill="#FFFFFF">
                            <path d="M3.18806959,7.41621622 L5.25600663,7.41621622 C6.28998031,7.41621622 7.07621935,7.20360573 7.61474731,6.77837838 C8.15327527,6.35315103 8.42253521,5.70811243 8.42253521,4.84324324 C8.42253521,3.97837405 8.15327527,3.37657827 7.61474731,3.03783784 C7.07621935,2.69909741 6.28998031,2.52972973 5.25600663,2.52972973 L3.18806959,2.52972973 L3.18806959,7.41621622 Z M8.68102734,16 L5.4067937,9.94594595 L3.18806959,9.94594595 L3.18806959,16 L0,16 L0,0 L5.55758078,0 C6.39050403,0 7.17315292,0.0792784865 7.90555095,0.237837838 C8.63794898,0.396397189 9.27340244,0.663061189 9.81193041,1.03783784 C10.3504584,1.41261449 10.774094,1.90990681 11.08285,2.52972973 C11.3916061,3.14955265 11.5459818,3.92071611 11.5459818,4.84324324 C11.5459818,6.05406011 11.2695416,7.03423049 10.7166529,7.78378378 C10.1637642,8.53333708 9.42778698,9.08828649 8.50869925,9.44864865 L12.2352941,16 L8.68102734,16 Z" id="R"></path>
                            <polygon id="E" points="24 0 33.1891208 0 33.1891208 2.65945946 26.9955724 2.65945946 26.9955724 6.35675676 32.2580645 6.35675676 32.2580645 9.03783784 26.9955724 9.03783784 26.9955724 13.3189189 33.4117647 13.3189189 33.4117647 16 24 16"></polygon>
                            <polygon id="Z" points="46 14.0756757 53.3518313 2.65945946 46.7032186 2.65945946 46.7032186 0 57.208879 0 57.208879 1.9027027 49.8783574 13.3189189 57.2941176 13.3189189 57.2941176 16 46 16"></polygon>
                            <path d="M112,0 L115.445378,0 L118.092437,7.48108108 C118.260505,7.98558811 118.421568,8.4972947 118.57563,9.01621622 L119.037815,10.572973 L119.142857,10.572973 C119.310925,10.0540515 119.468487,9.53513773 119.615546,9.01621622 C119.762606,8.4972947 119.920167,7.98558811 120.088235,7.48108108 L122.672269,0 L126.117647,0 L126.117647,16 L123.281513,16 L123.281513,9.31891892 C123.281513,8.94414227 123.295518,8.529732 123.323529,8.07567568 C123.351541,7.62161935 123.383053,7.1603627 123.418067,6.69189189 C123.453081,6.22342108 123.491596,5.76216443 123.533613,5.30810811 C123.57563,4.85405178 123.617647,4.43964151 123.659664,4.06486486 L123.57563,4.06486486 L122.315126,7.82702703 L119.920168,14.5513514 L118.134454,14.5513514 L115.718487,7.82702703 L114.478992,4.06486486 L114.394958,4.06486486 C114.436975,4.43964151 114.478991,4.85405178 114.521008,5.30810811 C114.563025,5.76216443 114.605042,6.22342108 114.647059,6.69189189 C114.689076,7.1603627 114.724089,7.62161935 114.752101,8.07567568 C114.780112,8.529732 114.794118,8.94414227 114.794118,9.31891892 L114.794118,16 L112,16 L112,0 Z" id="M"></path>
                            <polygon id="E" points="138 0 147.189121 0 147.189121 2.65945946 140.995572 2.65945946 140.995572 6.35675676 146.258065 6.35675676 146.258065 9.03783784 140.995572 9.03783784 140.995572 13.3189189 147.411765 13.3189189 147.411765 16 138 16"></polygon>
                        </g>
                    </g>
                </g>
            </g>
        </g>
    </g>
</svg>