<svg xmlns="http://www.w3.org/2000/svg" xmlns:xlink="http://www.w3.org/1999/xlink" width="148" height="18" viewBox="0 0 148 18">
    <defs>
        <rect id="a" width="14" height="2.5" x="7" y="6" rx="1.25"/>
    </defs>
    <g fill="none" fill-rule="evenodd">
        <g transform="translate(71 2)">
            <circle cx="7" cy="7" r="7" stroke="#3C435F" stroke-width="2.9"/>
            <circle cx="20" cy="7" r="7" stroke="#3C435F" stroke-width="2.9"/>
            <use fill="#2CCAFF" xlink:href="#a"/>
            <rect width="16.5" height="5" x="5.75" y="4.75" stroke="#F2F5F8" stroke-width="2.5" rx="2.5"/>
        </g>
        <g fill="#3C435F">
            <path d="M3.188 8.416h2.068c1.034 0 1.82-.212 2.359-.638.538-.425.808-1.07.808-1.935s-.27-1.466-.808-1.805c-.539-.339-1.325-.508-2.359-.508H3.188v4.886zM8.681 17l-3.274-6.054H3.188V17H0V1h5.558c.833 0 1.615.08 2.348.238.732.158 1.367.425 1.906.8.538.375.962.872 1.27 1.492.31.62.464 1.39.464 2.313 0 1.211-.276 2.191-.83 2.94-.552.75-1.288 1.305-2.207 1.666L12.235 17H8.681zM24 1h9.19v2.66h-6.194v3.697h5.262v2.68h-5.262v4.282h6.416V17H24zM46 15.076l7.352-11.417h-6.649V1H57.21v1.903l-7.33 11.416h7.415V17H46zM112 1h3.445l2.647 7.481c.169.505.33 1.016.484 1.535l.462 1.557h.105c.168-.519.325-1.038.473-1.557.147-.519.304-1.03.472-1.535L122.672 1h3.446v16h-2.836v-6.681c0-.375.014-.79.042-1.243.028-.454.06-.916.094-1.384a78.59 78.59 0 0 1 .242-2.627h-.084l-1.26 3.762-2.396 6.724h-1.786l-2.416-6.724-1.239-3.762h-.084c.042.375.084.79.126 1.243l.126 1.384c.042.468.077.93.105 1.384.028.454.042.868.042 1.243V17H112V1zM138 1h9.19v2.66h-6.194v3.697h5.262v2.68h-5.262v4.282h6.416V17H138z"/>
        </g>
    </g>
</svg>
